<svg width="46" height="34" viewBox="0 0 46 34" fill="none" xmlns="http://www.w3.org/2000/svg">
<path d="M0.619408 34H24.0048C24.4652 34 24.7646 33.468 24.5589 33.0158L24.0779 31.96L23.0715 30.005L23.0196 29.9101C22.9645 29.8095 22.8867 29.7261 22.7936 29.6683C22.7006 29.6104 22.5955 29.58 22.4885 29.58H7.6644C7.18529 29.58 6.88753 29.0083 7.1308 28.5549L16.8123 10.5078C17.0511 10.063 17.6367 10.0609 17.8777 10.5043L30.4785 33.6686C30.5334 33.7697 30.6113 33.8533 30.7045 33.9114C30.7977 33.9695 30.9031 34 31.0102 34H45.3797C45.8564 34 46.1545 33.4332 45.9161 32.98L28.7472 0.34C28.6929 0.23664 28.6147 0.150765 28.5205 0.0911196C28.4263 0.0313767 28.3195 0 28.2108 0H25.1323C24.6596 0 24.3612 0.557794 24.5914 1.01116L38.5842 28.5688C38.8144 29.0222 38.5159 29.58 38.0433 29.58H33.4146C33.3063 29.58 33.1999 29.5488 33.106 29.4897C33.0122 29.4304 32.9341 29.3451 32.8797 29.2424L17.986 1.18757C17.9315 1.08489 17.8534 0.9996 17.7595 0.940343C17.6657 0.881183 17.5593 0.85 17.451 0.85H17.3888C17.2804 0.85 17.1739 0.881184 17.08 0.940538C16.9861 0.999795 16.908 1.08518 16.8534 1.18796L0.0840387 32.8214C0.0290156 32.9252 0 33.0432 0 33.1634V33.32C0 33.5004 0.0652847 33.6733 0.181435 33.8009C0.297585 33.9284 0.455135 34 0.619408 34Z" fill="#19A7CE"/>
</svg>
